# xmcd
#
# Track frame offsets:
#	150
#	15288
#	27315
#	44041
#	59184
#	72876
#	88829
#	101843
#	113141
#	127422
#	139975
#	150404
#
# Disc length: 2182 seconds
#
# Revision: 0
# Processed by: cddbd v1.5.2PL0 Copyright (c) Steve Scherf et al.
# Submitted via: audiograbber 1.82.02
#
DISCID=b108840c
DTITLE=Slim Dusty - Cattle Camp Crooner
DYEAR=1969
DGENRE=Country
TTITLE0=Arcadia Valley
TTITLE1=Dry Weather Wind
TTITLE2=Getting Away From It All
TTITLE3=Casey's Luck
TTITLE4=Old Tibiib'ra
TTITLE5=Somewhere Up In Queensland
TTITLE6=Cattle Camp Crooner
TTITLE7=Ribs Cooked On The Coals
TTITLE8=Relics Of The Past
TTITLE9=Paddy gramp
TTITLE10=Horse And Hobble Days
TTITLE11=The Wave Hill Track
EXTD=
EXTT0=
EXTT1=
EXTT2=
EXTT3=
EXTT4=
EXTT5=
EXTT6=
EXTT7=
EXTT8=
EXTT9=
EXTT10=
EXTT11=
PLAYORDER=
